<?xml version="1.0" standalone="no"?>
<!DOCTYPE svg PUBLIC "-//W3C//DTD SVG 20010904//EN"
 "http://www.w3.org/TR/2001/REC-SVG-20010904/DTD/svg10.dtd">
<svg version="1.0" xmlns="http://www.w3.org/2000/svg"
 width="429.000000pt" height="200.000000pt" viewBox="0 0 429.000000 200.000000"
 preserveAspectRatio="xMidYMid meet">

<g transform="translate(0.000000,200.000000) scale(0.100000,-0.100000)"
fill="#000000" stroke="none">
<path d="M0 1000 l0 -1000 2145 0 2145 0 0 410 c0 403 0 410 -20 410 -12 0
-20 -7 -20 -17 -1 -17 -1 -17 -14 0 -14 19 -46 23 -46 7 0 -7 -4 -8 -12 -1 -7
6 -42 35 -78 64 -36 29 -73 56 -83 60 -11 4 -15 12 -11 19 6 10 4 10 -8 0 -13
-10 -17 -10 -21 0 -4 10 -6 10 -6 -1 -1 -9 -5 -10 -13 -4 -19 15 -141 37 -235
42 -7 1 -13 5 -13 11 0 5 3 9 8 8 4 0 36 3 72 7 36 5 75 9 88 8 12 0 22 3 22
7 0 5 8 6 19 3 10 -2 25 3 34 11 11 12 17 13 20 3 4 -9 8 -9 15 2 8 11 10 11
15 0 4 -10 6 -8 6 4 1 10 5 16 9 13 5 -3 35 20 68 49 32 30 62 55 66 55 4 0
14 7 22 16 9 8 16 11 16 5 0 -15 37 -14 44 2 5 10 7 10 12 0 3 -7 14 -13 25
-13 18 0 19 13 19 410 l0 410 -2145 0 -2145 0 0 -1000z"/>
</g>
</svg>
